<svg width="273" height="120" viewBox="0 0 273 120" fill="none" xmlns="http://www.w3.org/2000/svg">
<path fill-rule="evenodd" clip-rule="evenodd" d="M72.4434 1.9907C71.5886 1.9907 70.7948 2.17275 70.0621 2.41545C71.6191 3.44699 72.4739 4.81227 72.9013 6.35957C72.9319 6.57194 72.9929 6.72364 73.0235 6.93601C73.0541 7.11805 73.0845 7.30008 73.0845 7.48212C73.2067 10.152 72.3823 10.4857 71.8023 12.0634C70.9169 14.0961 71.1611 16.2805 72.2297 18.0402C72.3213 18.2526 72.4434 18.4953 72.596 18.7077C71.4359 11.0318 77.8775 9.87893 79.0681 7.48212C79.1597 5.38871 77.4196 3.9931 76.0458 3.02224C74.733 2.23342 73.5424 1.9907 72.4434 1.9907ZM82.1516 3.72005C82.0294 4.41785 82.121 4.23581 82.0906 4.59989C82.06 4.8426 82.06 5.146 82.0295 5.38871C81.9685 5.63142 81.9074 5.87413 81.8158 6.11686C81.7548 6.35957 81.6632 6.60228 81.5716 6.84499C81.4494 7.08772 81.3579 7.30008 81.2358 7.5428C81.1442 7.6642 81.0832 7.78551 80.9916 7.90687C80.9306 7.99789 80.8694 8.08891 80.8084 8.17993C80.6558 8.39231 80.5031 8.60467 80.3505 8.78671C80.1673 8.96875 80.0146 9.18112 79.8009 9.33283V9.3632C79.6178 9.5149 79.4346 9.69694 79.2209 9.84863C78.5798 10.3341 77.8471 10.6981 77.1754 11.1532C76.9617 11.3049 76.748 11.4263 76.5649 11.6083C76.3512 11.76 76.168 11.9117 75.9848 12.0937C75.7711 12.2758 75.6185 12.4578 75.4353 12.6702C75.2826 12.8522 75.0995 13.0646 74.9774 13.277C74.8247 13.4893 74.6721 13.7017 74.55 13.9141C74.4278 14.1568 74.3362 14.3692 74.2141 14.6119C74.1226 14.8546 74.031 15.067 73.9699 15.3097C73.8783 15.5828 73.8173 15.8255 73.7562 16.0682C73.7256 16.1896 73.7256 16.3412 73.6952 16.4626C73.6646 16.584 73.6646 16.7053 73.6342 16.8267C73.6342 17.0694 73.6036 17.3424 73.6036 17.5851C73.6036 17.7672 73.6036 17.9492 73.6342 18.1313C73.6342 18.374 73.6648 18.6167 73.7258 18.8897C73.7563 19.1325 73.8173 19.3752 73.8784 19.6179C73.97 19.8606 74.0311 20.1033 74.1226 20.346C74.1837 20.4977 74.2753 20.6494 74.3364 20.7708L67.3147 18.0706C66.1241 17.7368 64.964 17.4335 63.7733 17.1604C63.1322 17.0087 62.4911 16.857 61.85 16.7053C60.0183 16.3412 58.156 16.0682 56.2938 15.8862C56.2328 15.8862 56.2022 15.8558 56.1411 15.8558C54.3094 15.6737 52.5082 15.5827 50.6764 15.5827C49.3332 15.5827 47.9899 15.6434 46.6771 15.7344C44.8149 15.8558 42.9526 16.0985 41.0903 16.4019C40.6324 16.4625 40.1745 16.5536 39.7165 16.6446C38.7701 16.8266 37.8543 17.039 36.9689 17.2514C36.511 17.3728 36.0531 17.4941 35.5951 17.6155C35.1372 17.7975 34.7098 18.0099 34.2824 18.1919C33.9466 18.3436 33.6107 18.4953 33.2749 18.647C33.2139 18.6774 33.1528 18.6774 33.1223 18.7076C32.817 18.8593 32.5422 18.9807 32.2675 19.1324C32.1759 19.1628 32.1148 19.193 32.0538 19.2234C31.718 19.3751 31.3821 19.5571 31.1074 19.7088C30.8937 19.7998 30.68 19.9212 30.4968 20.0122C30.4052 20.0729 30.2831 20.1336 30.222 20.1639C29.9473 20.3156 29.6725 20.4673 29.4283 20.619C29.1535 20.7707 28.9093 20.9224 28.6956 21.0741C28.4819 21.2258 28.2682 21.3471 28.085 21.4988C28.0544 21.5292 28.024 21.5292 27.9934 21.5595C27.8102 21.6809 27.5966 21.8325 27.4134 21.9842C27.4134 21.9842 27.3828 22.0146 27.3524 22.0449C27.1997 22.1663 27.0471 22.2876 26.8944 22.4089C26.8334 22.4393 26.7723 22.4999 26.7113 22.5303C26.5586 22.6517 26.406 22.8034 26.2533 22.9247C26.2227 22.9854 26.1617 23.0158 26.1312 23.0462C25.948 23.2282 25.7648 23.3799 25.5816 23.5619C25.5511 23.5619 25.5511 23.5923 25.5206 23.6225C25.3375 23.7742 25.1543 23.9563 24.9711 24.1383C24.9405 24.1687 24.9405 24.1989 24.9101 24.1989C24.7575 24.3506 24.6048 24.5023 24.4522 24.6844C24.3911 24.745 24.2995 24.8058 24.2385 24.8664C24.0858 25.0484 23.9026 25.2305 23.7195 25.4125C23.6889 25.4732 23.6279 25.5035 23.5973 25.5642C23.3531 25.8069 23.1394 26.0497 22.8951 26.2924C22.8646 26.3227 22.8341 26.353 22.8036 26.3834C22.3151 26.8991 21.7961 27.4149 21.2466 27.87C20.6971 28.3554 20.117 28.8105 19.537 29.2049C18.9264 29.6297 18.3463 29.9938 17.7052 30.3578C17.0946 30.6915 16.4535 30.995 15.7819 31.268C15.1408 31.5411 14.4692 31.7838 13.7975 31.9961C12.5153 32.2692 11.2026 32.785 10.073 32.876C9.82875 32.876 9.55399 32.9366 9.30976 32.967C9.035 33.0276 8.79077 33.0884 8.54655 33.149C8.30232 33.2401 8.05807 33.3311 7.81384 33.4221C7.56962 33.5131 7.32539 33.6345 7.08116 33.7558C6.86745 33.9075 6.62322 34.0289 6.40951 34.1806C6.19582 34.3323 5.98211 34.5143 5.79893 34.6963C5.58524 34.848 5.37153 35.0604 5.18836 35.2425C5.00518 35.4548 4.82201 35.6369 4.66936 35.8492C4.51672 36.0919 4.33355 36.3043 4.21143 36.547C4.05879 36.7594 3.90615 37.0021 3.78402 37.2448C3.66186 37.5179 3.5398 37.7606 3.44821 38.0337C3.35662 38.2764 3.26503 38.5494 3.17345 38.8225C3.11244 39.0652 3.05128 39.3079 3.0208 39.5506C3.0208 39.581 2.99023 39.6113 2.99023 39.6416C2.92922 39.9147 2.92922 40.2788 2.89864 40.4608C2.86806 40.6732 2.83763 40.8552 2.83763 41.0676C2.83763 41.189 2.83763 41.3407 2.86821 41.462C2.89878 41.6744 2.92922 41.8564 2.99037 42.0385C3.05138 42.2205 3.11254 42.4025 3.20407 42.5846V42.615C3.29565 42.797 3.41777 42.979 3.53988 43.1611C3.66205 43.3431 3.78412 43.5251 3.93677 43.7072C4.08941 43.8589 4.27258 44.0409 4.45576 44.1926C4.63893 44.3746 4.82211 44.5263 5.0358 44.678C5.7685 45.3152 5.95168 45.5275 6.89807 46.013C7.05071 46.104 7.20337 46.1647 7.38654 46.2557C7.41712 46.2557 7.44755 46.2861 7.47813 46.2861C7.47813 46.3467 7.47813 46.3771 7.50871 46.4378C7.53929 46.6805 7.6003 46.9232 7.66135 47.1659C7.72236 47.439 7.81401 47.6817 7.90559 47.8941C7.99718 48.0761 8.05823 48.2581 8.14982 48.4402C8.1804 48.5008 8.21083 48.5616 8.24141 48.5919C8.36357 48.8346 8.48564 49.047 8.60775 49.2593C8.7604 49.4717 8.91304 49.6841 9.06568 49.8965C9.21832 50.0785 9.4015 50.2909 9.58467 50.4729C9.76785 50.6549 9.95102 50.8066 10.1647 50.9887C10.1647 50.9887 10.1953 51.0191 10.2257 51.0191C10.4089 51.1708 10.5921 51.3225 10.7753 51.4438C10.989 51.5955 11.2027 51.7169 11.4469 51.8382C11.6606 51.9596 11.9048 52.081 12.1491 52.172C12.3322 52.263 12.5459 52.3237 12.7596 52.3843C12.7902 52.4148 12.8207 52.4148 12.8818 52.445C13.004 52.4754 13.1566 52.5056 13.2787 52.536C13.1871 54.1743 13.1565 55.7216 13.4008 56.2677C13.6756 56.8745 15.0189 55.0238 16.3621 52.9001C16.179 54.9935 16.0569 57.451 16.3621 58.1791C16.698 58.9376 18.5297 56.5711 20.1172 53.9619C41.7622 48.9863 61.5144 63.8526 63.5904 84.8474C63.1935 81.5707 59.1332 79.7504 57.2709 80.2055C56.355 82.4506 54.7981 85.3328 52.2947 87.1228C52.5084 85.1204 52.4169 83.0574 51.9894 81.055C51.3178 83.8462 50.005 86.4554 48.2038 88.7005C45.3036 88.9128 42.4033 87.5172 40.8769 85.4238C40.7547 85.3328 40.7242 85.1508 40.6326 85.0294C40.541 84.817 40.4495 84.6047 40.3884 84.3923C40.2968 84.1799 40.2358 83.9675 40.2052 83.7552C40.1747 83.5428 40.1747 83.3304 40.1747 83.0877C40.1747 82.936 40.1747 82.7843 40.1747 82.6326C40.2052 82.4202 40.2662 82.2078 40.3273 81.9955C40.3883 81.7831 40.4495 81.5707 40.541 81.3583C40.6632 81.146 40.7547 80.9336 40.9074 80.7212C41.4263 79.2649 41.4263 78.0817 40.4799 77.3839C40.2968 77.2625 40.1136 77.1715 39.8999 77.0805C39.7777 77.0501 39.6251 76.9895 39.503 76.9591C39.4114 76.9287 39.3504 76.8985 39.2588 76.8681C39.0451 76.8074 38.8314 76.7467 38.6177 76.7164C38.404 76.6558 38.1903 76.6254 37.9766 76.6254C37.7629 76.5949 37.5186 76.5647 37.3049 76.5647C37.1523 76.5647 36.9996 76.5951 36.847 76.5951C36.6028 76.5951 36.3891 76.6255 36.1754 76.6861C35.9617 76.7165 35.748 76.7468 35.5343 76.8075C35.3206 76.8682 35.1069 76.9289 34.8931 77.0199C34.6794 77.1109 34.4963 77.2019 34.2826 77.293C34.0994 77.384 33.9162 77.5053 33.7025 77.5964C26.5893 82.2079 30.8328 93.0087 35.6869 96.1337C33.8552 96.4674 31.9929 96.8618 31.4739 97.2562C31.4433 97.2866 31.4129 97.3169 31.4129 97.3169C32.7256 98.1057 34.0994 98.7731 35.5343 99.3496C37.4882 99.9867 39.5641 100.563 40.48 100.806V100.836C43.0139 101.352 45.5783 101.534 48.1733 101.382C61.6976 100.442 72.7796 90.2175 74.7945 76.7468C74.8555 77.0199 74.9167 77.2626 74.9777 77.5357C75.0693 78.0818 75.1914 78.6582 75.2524 79.2347V79.2651C75.3135 79.5381 75.344 79.8112 75.3746 80.0539V80.1753C75.4052 80.4484 75.4356 80.7214 75.4356 80.9641C75.4662 81.2979 75.4966 81.6316 75.4966 81.9653V82.4508C75.4966 82.6025 75.5272 82.7845 75.5272 82.9362C75.5272 83.1182 75.4966 83.3003 75.4966 83.4823V83.907C75.4966 84.1194 75.466 84.3015 75.466 84.5138C75.466 84.6352 75.466 84.7566 75.4355 84.9082C75.4355 85.1206 75.4049 85.333 75.4049 85.5757C75.3743 85.6667 75.3743 85.7577 75.3743 85.8488C75.3437 86.0915 75.3133 86.3039 75.2827 86.5466C75.2827 86.6376 75.2827 86.7286 75.2521 86.8196C75.2215 87.123 75.1605 87.3961 75.13 87.6995V87.7299V87.7603C75.069 88.0333 75.0078 88.3367 74.9468 88.6098V88.7008C74.8858 88.9738 74.8246 89.2469 74.7636 89.5199C74.7636 89.5504 74.733 89.611 74.733 89.6413C74.672 89.9144 74.6109 90.1874 74.5194 90.4605V90.5515C74.4278 90.8549 74.3362 91.128 74.2751 91.401C74.2445 91.4314 74.2445 91.4617 74.2445 91.4617C74.153 91.7651 74.0614 92.0684 73.9698 92.3718C73.8476 92.6752 73.7561 92.9483 73.634 93.2517C73.5118 93.5551 73.4203 93.8585 73.2982 94.1315C73.176 94.4349 73.0539 94.708 72.9318 95.0114H72.9012C72.779 95.2844 72.6569 95.5878 72.5043 95.8609C72.4737 95.9519 72.4433 96.0126 72.4127 96.0732C72.3822 96.1037 72.3822 96.1339 72.3517 96.1643C70.3673 100.139 67.4365 103.628 63.7731 106.358C63.5289 106.51 63.2846 106.692 63.0404 106.874C62.9794 106.935 62.8877 106.965 62.8267 107.026C62.613 107.177 62.3993 107.329 62.1551 107.481L62.2466 107.663H62.2772C62.7046 107.602 63.132 107.541 63.5594 107.481H63.59C64.3838 107.359 65.1775 107.208 65.9713 107.056C66.1849 107.026 66.4292 106.965 66.6429 106.904C66.7955 106.874 66.9176 106.844 67.0703 106.813C67.284 106.783 67.4977 106.722 67.7114 106.692C67.8946 106.631 68.0778 106.601 68.2609 106.54C71.3138 105.812 74.2751 104.811 77.1143 103.628C72.2602 110.211 65.7575 115.521 58.1558 119.01C61.6667 118.767 65.1775 118.191 68.5662 117.22C80.8694 113.609 91.2187 105.387 97.416 94.3135C96.1644 101.322 93.3557 107.997 89.2038 113.822C92.1651 111.88 94.8821 109.635 97.355 107.086C104.193 99.9869 108.681 90.9762 110.208 81.2979C111.246 86.0915 111.551 91.0369 111.093 95.9215C133.135 65.3698 112.925 33.6955 104.468 25.3522C104.438 25.2916 104.407 25.2612 104.407 25.2005C104.377 25.2309 104.377 25.2309 104.377 25.2612C104.377 25.2308 104.377 25.2308 104.346 25.2005C104.346 25.5646 104.315 25.9287 104.285 26.2928C104.193 26.9906 104.102 27.658 103.98 28.3255C103.827 28.993 103.644 29.6604 103.461 30.3279C103.247 30.965 103.003 31.6325 102.728 32.2696C102.453 32.8764 102.148 33.5135 101.812 34.1203C101.476 34.6968 101.11 35.3035 100.713 35.8496C100.316 36.4261 99.8889 36.9722 99.4615 37.4879C99.0035 38.0341 98.5151 38.5195 98.0266 39.0049C97.7213 39.278 97.4466 39.5207 97.1412 39.7634C96.897 39.9758 96.6833 40.1578 96.4391 40.3702C95.8896 40.7949 95.34 41.1894 94.7295 41.5534C94.1494 41.9175 93.5389 42.2816 92.9283 42.585C92.2872 42.8884 91.6461 43.1614 91.005 43.4345C90.3638 43.6772 89.6922 43.8896 89.0206 44.0716C88.3489 44.2536 87.6468 44.4053 86.9751 44.5267C86.273 44.6481 85.5708 44.7087 84.8992 44.7694C84.4107 44.7998 83.9222 44.83 83.4338 44.83C82.7316 44.83 82.0295 44.7694 81.3578 44.7086C80.6557 44.648 79.9535 44.5569 79.2818 44.4052C78.5797 44.2838 77.908 44.1018 77.2364 43.8895H77.2058C77.8775 43.8288 78.5491 43.768 79.2207 43.6467C79.9229 43.5253 80.5945 43.3737 81.2662 43.1916C81.9378 43.0096 82.6095 42.7972 83.2506 42.5545C83.9222 42.3118 84.5633 42.0084 85.1739 41.705C85.815 41.4016 86.395 41.0679 87.0056 40.7038C87.5857 40.3094 88.1657 39.915 88.7152 39.4903C89.2648 39.0655 89.7837 38.6104 90.2722 38.125C90.7912 37.6699 91.2491 37.1541 91.7071 36.6384C92.165 36.0923 92.5924 35.5462 92.9893 35C93.0503 34.909 93.1115 34.7877 93.1725 34.6966C93.4778 34.2112 93.783 33.7258 94.0578 33.2404C94.3936 32.6336 94.6989 32.0268 94.9737 31.3897C95.2484 30.7525 95.4927 30.1154 95.7064 29.4479C95.9201 28.8108 96.0727 28.1434 96.2254 27.4759C96.3475 26.7781 96.4696 26.1106 96.5306 25.4432C96.5917 24.7454 96.6528 24.0475 96.6528 23.3801C96.6528 22.8947 96.6222 22.4092 96.5918 21.9238C96.5308 21.226 96.4391 20.5585 96.3476 19.8911C96.2254 19.1933 96.0728 18.5258 95.8896 17.8583C95.6759 17.2212 95.4622 16.5537 95.218 15.9166C94.9738 15.2795 94.6685 14.6424 94.3632 14.0356C94.0274 13.4288 93.6915 12.822 93.3252 12.2456C92.9283 11.6691 92.5314 11.123 92.104 10.5769C91.6461 10.0611 91.1882 9.54536 90.6997 9.02959C90.4555 8.78688 90.1807 8.51383 89.906 8.27112C88.5322 7.20924 87.0973 6.20803 85.6624 5.29786C85.4487 5.17646 85.2656 5.08548 85.0519 4.99446C84.0444 4.35734 83.098 4.02343 82.1516 3.72005Z" fill="#E0234E"/>
<line x1="144.5" y1="10" x2="144.5" y2="110" stroke="#7D7D7D" stroke-width="3"/>
<path d="M249.758 109.139H180.346C178.016 109.139 176.128 107.251 176.128 104.921V18.5604C176.128 16.2305 178.016 14.3416 180.346 14.3416H249.758C252.088 14.3416 253.977 16.2305 253.977 18.5604V104.921C253.977 107.251 252.088 109.139 249.758 109.139Z" fill="#DCE2E2"/>
<path d="M238.247 38.9889H188.266C186.809 38.9889 185.629 37.8084 185.629 36.3521C185.629 34.8959 186.809 33.7154 188.266 33.7154H238.247C239.703 33.7154 240.884 34.8959 240.884 36.3521C240.884 37.8084 239.703 38.9889 238.247 38.9889ZM240.884 48.3189C240.884 46.8627 239.703 45.6822 238.247 45.6822H188.266C186.809 45.6822 185.629 46.8627 185.629 48.3189C185.629 49.7752 186.809 50.9557 188.266 50.9557H238.247C239.703 50.9557 240.884 49.7752 240.884 48.3189ZM207.131 60.2859C207.131 58.8297 205.951 57.6492 204.495 57.6492H188.266C186.809 57.6492 185.629 58.8297 185.629 60.2859C185.629 61.7422 186.809 62.9227 188.266 62.9227H204.495C205.951 62.9227 207.131 61.7422 207.131 60.2859ZM240.884 72.2527C240.884 70.7965 239.703 69.616 238.247 69.616H188.266C186.809 69.616 185.629 70.7965 185.629 72.2527C185.629 73.709 186.809 74.8895 188.266 74.8895H238.247C239.703 74.8895 240.884 73.709 240.884 72.2527ZM207.131 95.4361C207.131 93.9799 205.951 92.7994 204.495 92.7994H188.266C186.809 92.7994 185.629 93.9799 185.629 95.4361C185.629 96.8924 186.809 98.0729 188.266 98.0729H204.495C205.951 98.0729 207.131 96.8924 207.131 95.4361Z" fill="#96A9B2"/>
<path d="M265.079 37.4451C261.251 33.6172 256.884 31.7781 255.325 33.3373L244.782 43.8801L258.644 57.742L269.187 47.1992C270.746 45.64 268.907 41.273 265.079 37.4451Z" fill="#FF6E83"/>
<path d="M258.396 44.1281C254.029 39.7607 249.046 37.6625 247.268 39.4414L236.472 50.2375L252.287 66.0529L263.083 55.2568C264.862 53.4779 262.763 48.4953 258.396 44.1281Z" fill="#BFBCAF"/>
<path d="M216.764 92.9318L207.255 97.0678C207.09 97.1393 206.913 97.1778 206.734 97.181C206.554 97.1841 206.376 97.1519 206.209 97.0862C206.042 97.0204 205.89 96.9224 205.761 96.7978C205.631 96.6732 205.528 96.5243 205.457 96.3598C205.382 96.1877 205.344 96.0022 205.344 95.8147C205.344 95.6273 205.382 95.4418 205.457 95.2697L209.593 85.7607C210.793 83.0008 214.004 81.7365 216.764 82.9369C219.524 84.1373 220.788 87.348 219.587 90.108C219.016 91.4209 217.979 92.4002 216.764 92.9318Z" fill="#2B2622"/>
<path d="M256.845 61.4613C256.855 61.4469 256.866 61.4326 256.875 61.418C258.247 59.4525 256.148 54.7209 251.976 50.5486C247.804 46.3764 243.072 44.2777 241.107 45.6492C241.092 45.6588 241.078 45.6689 241.063 45.6791C241.045 45.6922 241.027 45.7045 241.01 45.7182C240.962 45.7555 240.914 45.7949 240.87 45.8393L215.78 70.9291C215.78 70.9291 208.682 88.4937 211.356 91.168C214.031 93.8422 231.595 86.7445 231.595 86.7445L256.685 61.6547C256.729 61.6103 256.769 61.5631 256.806 61.5144C256.82 61.4975 256.832 61.4791 256.845 61.4613Z" fill="#FFD469"/>
<path d="M215.779 70.9295L215.222 74.402C215.14 74.9127 215.583 75.3537 216.093 75.2703L218.581 74.8639C219.073 74.7836 219.507 75.191 219.458 75.6865L219.181 78.4955C219.17 78.6106 219.185 78.7268 219.225 78.8352C219.266 78.9435 219.331 79.0412 219.415 79.1207C219.499 79.2002 219.6 79.2594 219.71 79.2938C219.821 79.3282 219.937 79.3369 220.052 79.3191L222.567 78.9291C223.081 78.8494 223.521 79.2994 223.429 79.8117L222.999 82.218C222.91 82.7135 223.321 83.1563 223.821 83.1057L226.652 82.8201C226.764 82.8088 226.877 82.8226 226.983 82.8604C227.089 82.8982 227.185 82.9591 227.265 83.0387C227.344 83.1183 227.405 83.2146 227.443 83.3206C227.48 83.4266 227.494 83.5397 227.482 83.6516L227.191 86.5072C227.14 86.9986 227.566 87.4061 228.055 87.3344L231.657 86.8066L211.356 95.301C212.976 93.6814 208.782 89.4883 207.163 91.1076L215.779 70.9295Z" fill="#E5AA6E"/>
<path d="M220.989 71.8469C220.802 71.8468 220.619 71.7913 220.464 71.6874C220.309 71.5834 220.187 71.4358 220.116 71.2631C220.044 71.0903 220.026 70.9003 220.062 70.7169C220.098 70.5335 220.188 70.3651 220.321 70.2328L241.255 49.298C241.434 49.1271 241.672 49.0328 241.919 49.0355C242.167 49.0382 242.403 49.1376 242.578 49.3124C242.753 49.4873 242.852 49.7236 242.855 49.9709C242.857 50.2181 242.763 50.4566 242.592 50.6352L221.657 71.5699C221.57 71.6579 221.466 71.7276 221.351 71.7752C221.236 71.8227 221.113 71.8471 220.989 71.8469ZM227.005 76.918L247.94 55.9832C248.111 55.8046 248.205 55.5661 248.203 55.3189C248.2 55.0717 248.101 54.8353 247.926 54.6605C247.751 54.4857 247.515 54.3862 247.267 54.3836C247.02 54.3809 246.782 54.4751 246.603 54.6461L225.668 75.5809C225.497 75.7595 225.403 75.9979 225.406 76.2452C225.409 76.4924 225.508 76.7287 225.683 76.9036C225.858 77.0784 226.094 77.1778 226.341 77.1805C226.588 77.1832 226.827 77.089 227.005 76.918ZM232.353 82.2658L253.288 61.3311C253.459 61.1525 253.553 60.914 253.551 60.6668C253.548 60.4195 253.449 60.1832 253.274 60.0083C253.099 59.8335 252.863 59.7341 252.615 59.7314C252.368 59.7287 252.13 59.823 251.951 59.9939L231.016 80.9287C230.845 81.1073 230.751 81.3458 230.754 81.593C230.756 81.8402 230.856 82.0766 231.031 82.2514C231.205 82.4263 231.442 82.5257 231.689 82.5284C231.936 82.531 232.175 82.4368 232.353 82.2658Z" fill="#FFB636"/>
<path d="M229.954 20.8041H199.44C197.868 20.8041 196.593 19.5295 196.593 17.9572V13.5727C196.593 12.0004 197.868 10.7258 199.44 10.7258H229.954C231.526 10.7258 232.801 12.0004 232.801 13.5727V17.9572C232.801 19.5295 231.526 20.8041 229.954 20.8041Z" fill="#B9C5C6"/>
</svg>
